<svg width="1280" height="720" xmlns="http://www.w3.org/2000/svg" xmlns:xlink="http://www.w3.org/1999/xlink" overflow="hidden"><defs><clipPath id="clip0"><rect x="0" y="0" width="1280" height="720"/></clipPath><clipPath id="clip1"><rect x="541" y="76" width="313" height="158"/></clipPath><clipPath id="clip2"><rect x="853" y="76" width="233" height="158"/></clipPath><clipPath id="clip3"><rect x="1085" y="76" width="149" height="158"/></clipPath><clipPath id="clip4"><rect x="541" y="42" width="313" height="315"/></clipPath><clipPath id="clip5"><rect x="541" y="42" width="313" height="315"/></clipPath><clipPath id="clip6"><rect x="853" y="109" width="72" height="158"/></clipPath><clipPath id="clip7"><rect x="924" y="109" width="162" height="158"/></clipPath><clipPath id="clip8"><rect x="1107" y="109" width="127" height="158"/></clipPath><clipPath id="clip9"><rect x="541" y="29" width="313" height="472"/></clipPath><clipPath id="clip10"><rect x="541" y="29" width="313" height="472"/></clipPath><clipPath id="clip11"><rect x="541" y="29" width="313" height="472"/></clipPath><clipPath id="clip12"><rect x="853" y="164" width="72" height="157"/></clipPath><clipPath id="clip13"><rect x="924" y="96" width="162" height="315"/></clipPath><clipPath id="clip14"><rect x="924" y="96" width="162" height="315"/></clipPath><clipPath id="clip15"><rect x="1107" y="164" width="127" height="157"/></clipPath><clipPath id="clip16"><rect x="541" y="173" width="313" height="315"/></clipPath><clipPath id="clip17"><rect x="541" y="173" width="313" height="315"/></clipPath><clipPath id="clip18"><rect x="853" y="240" width="72" height="158"/></clipPath><clipPath id="clip19"><rect x="924" y="173" width="162" height="315"/></clipPath><clipPath id="clip20"><rect x="924" y="173" width="162" height="315"/></clipPath><clipPath id="clip21"><rect x="1107" y="240" width="127" height="158"/></clipPath><clipPath id="clip22"><rect x="541" y="228" width="313" height="314"/></clipPath><clipPath id="clip23"><rect x="541" y="228" width="313" height="314"/></clipPath><clipPath id="clip24"><rect x="853" y="295" width="72" height="158"/></clipPath><clipPath id="clip25"><rect x="924" y="295" width="162" height="158"/></clipPath><clipPath id="clip26"><rect x="1107" y="295" width="127" height="158"/></clipPath><clipPath id="clip27"><rect x="541" y="215" width="313" height="471"/></clipPath><clipPath id="clip28"><rect x="541" y="215" width="313" height="471"/></clipPath><clipPath id="clip29"><rect x="541" y="215" width="313" height="471"/></clipPath><clipPath id="clip30"><rect x="853" y="349" width="72" height="158"/></clipPath><clipPath id="clip31"><rect x="924" y="215" width="162" height="471"/></clipPath><clipPath id="clip32"><rect x="924" y="215" width="162" height="471"/></clipPath><clipPath id="clip33"><rect x="924" y="215" width="162" height="471"/></clipPath><clipPath id="clip34"><rect x="1107" y="349" width="127" height="158"/></clipPath><clipPath id="clip35"><rect x="541" y="301" width="313" height="472"/></clipPath><clipPath id="clip36"><rect x="541" y="301" width="313" height="472"/></clipPath><clipPath id="clip37"><rect x="541" y="301" width="313" height="472"/></clipPath><clipPath id="clip38"><rect x="853" y="436" width="72" height="157"/></clipPath><clipPath id="clip39"><rect x="924" y="436" width="162" height="157"/></clipPath><clipPath id="clip40"><rect x="1107" y="436" width="127" height="157"/></clipPath><clipPath id="clip41"><rect x="541" y="512" width="313" height="158"/></clipPath><clipPath id="clip42"><rect x="853" y="512" width="72" height="158"/></clipPath><clipPath id="clip43"><rect x="924" y="512" width="162" height="158"/></clipPath><clipPath id="clip44"><rect x="1107" y="512" width="127" height="158"/></clipPath><clipPath id="clip45"><rect x="541" y="477" width="313" height="315"/></clipPath><clipPath id="clip46"><rect x="541" y="477" width="313" height="315"/></clipPath><clipPath id="clip47"><rect x="853" y="544" width="72" height="158"/></clipPath><clipPath id="clip48"><rect x="924" y="477" width="162" height="315"/></clipPath><clipPath id="clip49"><rect x="924" y="477" width="162" height="315"/></clipPath><clipPath id="clip50"><rect x="1107" y="544" width="127" height="158"/></clipPath><linearGradient x1="529.347" y1="48" x2="529.347" y2="105.6" gradientUnits="userSpaceOnUse" spreadMethod="reflect" id="fill51"><stop offset="0"/><stop offset="0.83"/><stop offset="1"/></linearGradient><radialGradient cx="0" cy="4.31482e+06" r="5.44685e+06" gradientUnits="userSpaceOnUse" spreadMethod="pad" id="fill52" gradientTransform="matrix(0.000104987 0 0 0.000104987 135 180)"><stop offset="0" stop-color="#E6E7E7"/><stop offset="0.27" stop-color="#EEF7F8"/><stop offset="1" stop-color="#66B8BF"/></radialGradient><clipPath id="clip53"><rect x="125" y="171" width="366" height="471"/></clipPath><clipPath id="clip54"><rect x="125" y="171" width="366" height="471"/></clipPath><clipPath id="clip55"><rect x="125" y="171" width="366" height="471"/></clipPath><clipPath id="clip56"><rect x="131" y="181" width="352" height="453"/></clipPath><clipPath id="clip57"><rect x="131" y="181" width="352" height="453"/></clipPath><clipPath id="clip58"><rect x="131" y="181" width="352" height="453"/></clipPath><clipPath id="clip59"><rect x="131" y="181" width="352" height="453"/></clipPath></defs><g clip-path="url(#clip0)"><rect x="0" y="0" width="1280" height="720" fill="#FFFFFF"/><path d="M541.002 172.157 853.092 172.157 853.092 226.557 541.002 226.557Z" fill="#E1E1E1" fill-rule="evenodd"/><path d="M853.092 172.157 924.809 172.157 924.809 226.557 853.092 226.557Z" fill="#E1E1E1" fill-rule="evenodd"/><path d="M924.809 172.157 1085.34 172.157 1085.34 226.557 924.809 226.557Z" fill="#E1E1E1" fill-rule="evenodd"/><path d="M1085.34 172.157 1107.21 172.157 1107.21 226.557 1085.34 226.557Z" fill="#0070C0" fill-rule="evenodd"/><path d="M1107.21 172.157 1233.25 172.157 1233.25 226.557 1107.21 226.557Z" fill="#E1E1E1" fill-rule="evenodd"/><path d="M541.002 226.557 853.092 226.557 853.092 303.357 541.002 303.357Z" fill="#F0F0F0" fill-rule="evenodd"/><path d="M853.092 226.557 924.809 226.557 924.809 303.357 853.092 303.357Z" fill="#F0F0F0" fill-rule="evenodd"/><path d="M924.809 226.557 1085.34 226.557 1085.34 303.357 924.809 303.357Z" fill="#F0F0F0" fill-rule="evenodd"/><path d="M1085.34 226.557 1107.21 226.557 1107.21 303.357 1085.34 303.357Z" fill="#969696" fill-rule="evenodd"/><path d="M1107.21 226.557 1233.25 226.557 1233.25 303.357 1107.21 303.357Z" fill="#F0F0F0" fill-rule="evenodd"/><path d="M541.002 303.357 853.092 303.357 853.092 357.757 541.002 357.757Z" fill="#E1E1E1" fill-rule="evenodd"/><path d="M853.092 303.357 924.809 303.357 924.809 357.757 853.092 357.757Z" fill="#E1E1E1" fill-rule="evenodd"/><path d="M924.809 303.357 1085.34 303.357 1085.34 357.757 924.809 357.757Z" fill="#E1E1E1" fill-rule="evenodd"/><path d="M1085.34 303.357 1107.21 303.357 1107.21 357.757 1085.34 357.757Z" fill="#0070C0" fill-rule="evenodd"/><path d="M1107.21 303.357 1233.25 303.357 1233.25 357.757 1107.21 357.757Z" fill="#E1E1E1" fill-rule="evenodd"/><path d="M541.002 357.757 853.092 357.757 853.092 412.157 541.002 412.157Z" fill="#F0F0F0" fill-rule="evenodd"/><path d="M853.092 357.757 924.809 357.757 924.809 412.157 853.092 412.157Z" fill="#F0F0F0" fill-rule="evenodd"/><path d="M924.809 357.757 1085.34 357.757 1085.34 412.157 924.809 412.157Z" fill="#F0F0F0" fill-rule="evenodd"/><path d="M1085.34 357.757 1107.21 357.757 1107.21 412.157 1085.34 412.157Z" fill="#0070C0" fill-rule="evenodd"/><path d="M1107.21 357.757 1233.25 357.757 1233.25 412.157 1107.21 412.157Z" fill="#F0F0F0" fill-rule="evenodd"/><path d="M541.002 412.157 853.092 412.157 853.092 498.553 541.002 498.553Z" fill="#E1E1E1" fill-rule="evenodd"/><path d="M853.092 412.157 924.809 412.157 924.809 498.553 853.092 498.553Z" fill="#E1E1E1" fill-rule="evenodd"/><path d="M924.809 412.157 1085.34 412.157 1085.34 498.553 924.809 498.553Z" fill="#E1E1E1" fill-rule="evenodd"/><path d="M1085.34 412.157 1107.21 412.157 1107.21 498.553 1085.34 498.553Z" fill="#00B0F0" fill-rule="evenodd"/><path d="M1107.21 412.157 1233.25 412.157 1233.25 498.553 1107.21 498.553Z" fill="#E1E1E1" fill-rule="evenodd"/><path d="M541.002 498.553 853.092 498.553 853.092 575.353 541.002 575.353Z" fill="#F0F0F0" fill-rule="evenodd"/><path d="M853.092 498.553 924.809 498.553 924.809 575.353 853.092 575.353Z" fill="#F0F0F0" fill-rule="evenodd"/><path d="M924.809 498.553 1085.34 498.553 1085.34 575.353 924.809 575.353Z" fill="#F0F0F0" fill-rule="evenodd"/><path d="M1085.34 498.553 1107.21 498.553 1107.21 575.353 1085.34 575.353Z" fill="#00B0F0" fill-rule="evenodd"/><path d="M1107.21 498.553 1233.25 498.553 1233.25 575.353 1107.21 575.353Z" fill="#F0F0F0" fill-rule="evenodd"/><path d="M541.002 607.353 853.092 607.353 853.092 661.753 541.002 661.753Z" fill="#F0F0F0" fill-rule="evenodd"/><path d="M853.092 607.353 924.809 607.353 924.809 661.753 853.092 661.753Z" fill="#F0F0F0" fill-rule="evenodd"/><path d="M924.809 607.353 1085.34 607.353 1085.34 661.753 924.809 661.753Z" fill="#F0F0F0" fill-rule="evenodd"/><path d="M1085.34 607.353 1107.21 607.353 1107.21 661.753 1085.34 661.753Z" fill="#1F4E79" fill-rule="evenodd"/><path d="M1107.21 607.353 1233.25 607.353 1233.25 661.753 1107.21 661.753Z" fill="#F0F0F0" fill-rule="evenodd"/><path d="M853.092 138.046 853.092 662.42" stroke="#FFFFFF" stroke-width="1.33333" stroke-linejoin="round" stroke-miterlimit="10" fill="none" fill-rule="evenodd"/><path d="M924.809 170.157 924.809 662.42" stroke="#FFFFFF" stroke-width="1.33333" stroke-linejoin="round" stroke-miterlimit="10" fill="none" fill-rule="evenodd"/><path d="M1085.34 138.046 1085.34 662.42" stroke="#FFFFFF" stroke-width="1.33333" stroke-linejoin="round" stroke-miterlimit="10" fill="none" fill-rule="evenodd"/><path d="M1107.21 170.157 1107.21 662.42" stroke="#FFFFFF" stroke-width="1.33333" stroke-linejoin="round" stroke-miterlimit="10" fill="none" fill-rule="evenodd"/><path d="M540.336 172.157 1233.92 172.157" stroke="#FFFFFF" stroke-width="4" stroke-linejoin="round" stroke-miterlimit="10" fill="none" fill-rule="evenodd"/><path d="M540.336 226.557 1233.92 226.557" stroke="#FFFFFF" stroke-width="1.33333" stroke-linejoin="round" stroke-miterlimit="10" fill="none" fill-rule="evenodd"/><path d="M540.336 303.357 1233.92 303.357" stroke="#FFFFFF" stroke-width="1.33333" stroke-linejoin="round" stroke-miterlimit="10" fill="none" fill-rule="evenodd"/><path d="M540.336 357.757 1233.92 357.757" stroke="#FFFFFF" stroke-width="1.33333" stroke-linejoin="round" stroke-miterlimit="10" fill="none" fill-rule="evenodd"/><path d="M540.336 412.157 1233.92 412.157" stroke="#FFFFFF" stroke-width="1.33333" stroke-linejoin="round" stroke-miterlimit="10" fill="none" fill-rule="evenodd"/><path d="M540.336 498.553 1233.92 498.553" stroke="#FFFFFF" stroke-width="1.33333" stroke-linejoin="round" stroke-miterlimit="10" fill="none" fill-rule="evenodd"/><path d="M540.336 575.353 1233.92 575.353" stroke="#FFFFFF" stroke-width="1.33333" stroke-linejoin="round" stroke-miterlimit="10" fill="none" fill-rule="evenodd"/><path d="M540.336 607.353 1233.92 607.353" stroke="#FFFFFF" stroke-width="1.33333" stroke-linejoin="round" stroke-miterlimit="10" fill="none" fill-rule="evenodd"/><path d="M541.002 138.046 541.002 662.42" stroke="#FFFFFF" stroke-width="1.33333" stroke-linejoin="round" stroke-miterlimit="10" fill="none" fill-rule="evenodd"/><path d="M1233.25 138.046 1233.25 662.42" stroke="#FFFFFF" stroke-width="1.33333" stroke-linejoin="round" stroke-miterlimit="10" fill="none" fill-rule="evenodd"/><path d="M540.336 138.713 1233.92 138.713" stroke="#FFFFFF" stroke-width="1.33333" stroke-linejoin="round" stroke-miterlimit="10" fill="none" fill-rule="evenodd"/><path d="M540.336 661.753 1233.92 661.753" stroke="#FFFFFF" stroke-width="1.33333" stroke-linejoin="round" stroke-miterlimit="10" fill="none" fill-rule="evenodd"/><g clip-path="url(#clip1)"><text font-family="Segoe UI,Segoe UI_MSFontService,sans-serif" font-weight="700" font-size="19" transform="translate(550.602 162)">Criteria</text></g><g clip-path="url(#clip2)"><text font-family="Segoe UI,Segoe UI_MSFontService,sans-serif" font-weight="700" font-size="19" transform="translate(862.692 162)">Technique</text></g><g clip-path="url(#clip3)"><text font-family="Segoe UI,Segoe UI_MSFontService,sans-serif" font-weight="700" font-size="19" transform="translate(1094.94 162)">Category</text></g><g clip-path="url(#clip4)"><text font-family="Segoe UI,Segoe UI_MSFontService,sans-serif" font-weight="400" font-size="19" transform="translate(550.602 195)">The rcs.3aka3.doc process </text></g><g clip-path="url(#clip5)"><text font-family="Segoe UI,Segoe UI_MSFontService,sans-serif" font-weight="400" font-size="19" transform="translate(550.602 218)">spawning from explorer.exe</text></g><g clip-path="url(#clip6)"><text font-family="Segoe UI,Segoe UI_MSFontService,sans-serif" font-weight="400" font-size="19" transform="translate(862.692 195)">T1204</text></g><g clip-path="url(#clip7)"><text font-family="Segoe UI,Segoe UI_MSFontService,sans-serif" font-weight="400" font-size="19" transform="translate(934.409 195)">User Execution</text></g><g clip-path="url(#clip8)"><text font-family="Segoe UI,Segoe UI_MSFontService,sans-serif" font-weight="400" font-size="19" transform="translate(1116.81 195)">Alert</text></g><g clip-path="url(#clip9)"><text font-family="Segoe UI,Segoe UI_MSFontService,sans-serif" font-weight="400" font-size="19" transform="translate(550.602 249)">Established C2 channel </text></g><g clip-path="url(#clip10)"><text font-family="Segoe UI,Segoe UI_MSFontService,sans-serif" font-weight="400" font-size="19" transform="translate(550.602 272)">(192.168.0.5) via rcs.3aka3.doc </text></g><g clip-path="url(#clip11)"><text font-family="Segoe UI,Segoe UI_MSFontService,sans-serif" font-weight="400" font-size="19" transform="translate(550.602 294)">payload over TCP port 1234</text></g><g clip-path="url(#clip12)"><text font-family="Segoe UI,Segoe UI_MSFontService,sans-serif" font-weight="400" font-size="19" transform="translate(862.692 249)">T1065</text></g><g clip-path="url(#clip13)"><text font-family="Segoe UI,Segoe UI_MSFontService,sans-serif" font-weight="400" font-size="19" transform="translate(934.409 249)">Uncommonly </text></g><g clip-path="url(#clip14)"><text font-family="Segoe UI,Segoe UI_MSFontService,sans-serif" font-weight="400" font-size="19" transform="translate(934.409 272)">Used Port</text></g><g clip-path="url(#clip15)"><text font-family="Segoe UI,Segoe UI_MSFontService,sans-serif" font-weight="400" font-size="19" transform="translate(1116.81 249)">Hunting</text></g><g clip-path="url(#clip16)"><text font-family="Segoe UI,Segoe UI_MSFontService,sans-serif" font-weight="400" font-size="19" transform="translate(550.602 326)">Spawned interactive cmd.exe from </text></g><g clip-path="url(#clip17)"><text font-family="Segoe UI,Segoe UI_MSFontService,sans-serif" font-weight="400" font-size="19" transform="translate(550.602 349)">rcs.3aka3.doc process</text></g><g clip-path="url(#clip18)"><text font-family="Segoe UI,Segoe UI_MSFontService,sans-serif" font-weight="400" font-size="19" transform="translate(862.692 326)">T1059</text></g><g clip-path="url(#clip19)"><text font-family="Segoe UI,Segoe UI_MSFontService,sans-serif" font-weight="400" font-size="19" transform="translate(934.409 326)">Command</text></g><text font-family="Segoe UI,Segoe UI_MSFontService,sans-serif" font-weight="400" font-size="19" transform="translate(1019.91 326)">-<tspan x="7.50006" y="0">Line </tspan></text><g clip-path="url(#clip20)"><text font-family="Segoe UI,Segoe UI_MSFontService,sans-serif" font-weight="400" font-size="19" transform="translate(934.409 349)">Interface</text></g><g clip-path="url(#clip21)"><text font-family="Segoe UI,Segoe UI_MSFontService,sans-serif" font-weight="400" font-size="19" transform="translate(1116.81 326)">Alert</text></g><g clip-path="url(#clip22)"><text font-family="Segoe UI,Segoe UI_MSFontService,sans-serif" font-weight="400" font-size="19" transform="translate(550.602 381)">Spawned interactive powershell.exe </text></g><g clip-path="url(#clip23)"><text font-family="Segoe UI,Segoe UI_MSFontService,sans-serif" font-weight="400" font-size="19" transform="translate(550.602 404)">from cmd.exe</text></g><g clip-path="url(#clip24)"><text font-family="Segoe UI,Segoe UI_MSFontService,sans-serif" font-weight="400" font-size="19" transform="translate(862.692 381)">T1086</text></g><g clip-path="url(#clip25)"><text font-family="Segoe UI,Segoe UI_MSFontService,sans-serif" font-weight="400" font-size="19" transform="translate(934.409 381)">PowerShell</text></g><g clip-path="url(#clip26)"><text font-family="Segoe UI,Segoe UI_MSFontService,sans-serif" font-weight="400" font-size="19" transform="translate(1116.81 381)">Alert</text></g><g clip-path="url(#clip27)"><text font-family="Segoe UI,Segoe UI_MSFontService,sans-serif" font-weight="400" font-size="19" transform="translate(550.602 435)">Searched filesystem for document </text></g><g clip-path="url(#clip28)"><text font-family="Segoe UI,Segoe UI_MSFontService,sans-serif" font-weight="400" font-size="19" transform="translate(550.602 458)">and media files using PowerShell</text></g><text font-family="Segoe UI,Segoe UI_MSFontService,sans-serif" font-weight="400" font-size="19" transform="translate(825.316 458)">-</text><g clip-path="url(#clip29)"><text font-family="Segoe UI,Segoe UI_MSFontService,sans-serif" font-weight="400" font-size="19" transform="translate(550.602 480)">Execute </text></g><text font-family="Segoe UI,Segoe UI_MSFontService,sans-serif" font-weight="400" font-size="19" transform="translate(618.642 480)">Get<tspan x="29" y="0">-</tspan>ChildItem</text><g clip-path="url(#clip30)"><text font-family="Segoe UI,Segoe UI_MSFontService,sans-serif" font-weight="400" font-size="19" transform="translate(862.692 435)">T1083</text></g><g clip-path="url(#clip31)"><text font-family="Segoe UI,Segoe UI_MSFontService,sans-serif" font-weight="400" font-size="19" transform="translate(934.409 435)">File and </text></g><g clip-path="url(#clip32)"><text font-family="Segoe UI,Segoe UI_MSFontService,sans-serif" font-weight="400" font-size="19" transform="translate(934.409 458)">Directory </text></g><g clip-path="url(#clip33)"><text font-family="Segoe UI,Segoe UI_MSFontService,sans-serif" font-weight="400" font-size="19" transform="translate(934.409 480)">Discovery</text></g><g clip-path="url(#clip34)"><text font-family="Segoe UI,Segoe UI_MSFontService,sans-serif" font-weight="400" font-size="19" transform="translate(1116.81 435)">Investigation</text></g><g clip-path="url(#clip35)"><text font-family="Segoe UI,Segoe UI_MSFontService,sans-serif" font-weight="400" font-size="19" transform="translate(550.602 521)">Staged files for exfiltration into ZIP </text></g><g clip-path="url(#clip36)"><text font-family="Segoe UI,Segoe UI_MSFontService,sans-serif" font-weight="400" font-size="19" transform="translate(550.602 544)">(Draft.zip) using PowerShell </text></g><text font-family="Segoe UI,Segoe UI_MSFontService,sans-serif" font-weight="400" font-size="19" transform="translate(781.489 544)">-</text><g clip-path="url(#clip37)"><text font-family="Segoe UI,Segoe UI_MSFontService,sans-serif" font-weight="400" font-size="19" transform="translate(550.602 566)">Creating draft.zip</text></g><g clip-path="url(#clip38)"><text font-family="Segoe UI,Segoe UI_MSFontService,sans-serif" font-weight="400" font-size="19" transform="translate(862.692 521)">T1074</text></g><g clip-path="url(#clip39)"><text font-family="Segoe UI,Segoe UI_MSFontService,sans-serif" font-weight="400" font-size="19" transform="translate(934.409 521)">Data Staged</text></g><g clip-path="url(#clip40)"><text font-family="Segoe UI,Segoe UI_MSFontService,sans-serif" font-weight="400" font-size="19" transform="translate(1116.81 521)">Investigation</text></g><g clip-path="url(#clip41)"><text font-family="Segoe UI,Segoe UI_MSFontService,sans-serif" font-weight="400" font-size="19" transform="translate(550.602 598)">…</text></g><g clip-path="url(#clip42)"><text font-family="Segoe UI,Segoe UI_MSFontService,sans-serif" font-weight="400" font-size="19" transform="translate(862.692 598)">…</text></g><g clip-path="url(#clip43)"><text font-family="Segoe UI,Segoe UI_MSFontService,sans-serif" font-weight="400" font-size="19" transform="translate(934.409 598)">…</text></g><g clip-path="url(#clip44)"><text font-family="Segoe UI,Segoe UI_MSFontService,sans-serif" font-weight="400" font-size="19" transform="translate(1116.81 598)">…</text></g><g clip-path="url(#clip45)"><text font-family="Segoe UI,Segoe UI_MSFontService,sans-serif" font-weight="400" font-size="19" transform="translate(550.602 630)">Embedded PowerShell payload in </text></g><g clip-path="url(#clip46)"><text font-family="Segoe UI,Segoe UI_MSFontService,sans-serif" font-weight="400" font-size="19" transform="translate(550.602 653)">monkey.png using steganography</text></g><g clip-path="url(#clip47)"><text font-family="Segoe UI,Segoe UI_MSFontService,sans-serif" font-weight="400" font-size="19" transform="translate(862.692 630)">T1027</text></g><g clip-path="url(#clip48)"><text font-family="Segoe UI,Segoe UI_MSFontService,sans-serif" font-weight="400" font-size="19" transform="translate(934.409 630)">Obfuscated Files </text></g><g clip-path="url(#clip49)"><text font-family="Segoe UI,Segoe UI_MSFontService,sans-serif" font-weight="400" font-size="19" transform="translate(934.409 653)">or Information</text></g><g clip-path="url(#clip50)"><text font-family="Segoe UI,Segoe UI_MSFontService,sans-serif" font-weight="400" font-size="19" transform="translate(1116.81 630)">Incident</text></g><path d="M674.471 83.2109 669.432 83.9141C667.869 84.1172 666.693 84.4961 665.904 85.0508 665.115 85.6055 664.721 86.5781 664.721 87.9688 664.721 88.9844 665.084 89.8164 665.811 90.4648 666.537 91.1133 667.51 91.4375 668.729 91.4375 670.385 91.4375 671.756 90.8555 672.842 89.6914 673.928 88.5273 674.471 87.0625 674.471 85.2969ZM982.893 74.7734C980.83 74.7734 979.217 75.5352 978.053 77.0586 976.889 78.582 976.307 80.7109 976.307 83.4453 976.307 85.8047 976.865 87.6914 977.983 89.1055 979.1 90.5195 980.58 91.2266 982.424 91.2266 984.299 91.2266 985.822 90.5508 986.994 89.1992 988.166 87.8477 988.752 86.1172 988.752 84.0078L988.752 80.8906C988.752 79.2031 988.193 77.7617 987.076 76.5664 985.959 75.3711 984.565 74.7734 982.893 74.7734ZM725.197 74.7734C723.072 74.7734 721.393 75.5156 720.158 77 718.924 78.4844 718.307 80.5312 718.307 83.1406 718.307 85.6562 718.932 87.6367 720.182 89.082 721.432 90.5273 723.104 91.25 725.197 91.25 727.338 91.25 728.983 90.5391 730.131 89.1172 731.279 87.6953 731.854 85.6719 731.854 83.0469 731.854 80.4062 731.279 78.3672 730.131 76.9297 728.983 75.4922 727.338 74.7734 725.197 74.7734ZM643.893 74.7734C641.83 74.7734 640.217 75.5352 639.053 77.0586 637.889 78.582 637.307 80.7109 637.307 83.4453 637.307 85.8047 637.865 87.6914 638.983 89.1055 640.1 90.5195 641.58 91.2266 643.424 91.2266 645.299 91.2266 646.822 90.5508 647.994 89.1992 649.166 87.8477 649.752 86.1172 649.752 84.0078L649.752 80.8906C649.752 79.2031 649.193 77.7617 648.076 76.5664 646.959 75.3711 645.565 74.7734 643.893 74.7734ZM149.846 74.7734C147.815 74.7734 146.217 75.5312 145.053 77.0469 143.889 78.5625 143.307 80.6641 143.307 83.3516 143.307 85.7891 143.865 87.7148 144.983 89.1289 146.1 90.543 147.604 91.25 149.494 91.25 151.354 91.25 152.861 90.5664 154.018 89.1992 155.174 87.832 155.752 86.1094 155.752 84.0312L155.752 80.8906C155.752 79.1875 155.197 77.7422 154.088 76.5547 152.979 75.3672 151.565 74.7734 149.846 74.7734ZM569.236 74.4453C567.674 74.4453 566.35 75.0156 565.264 76.1562 564.178 77.2969 563.51 78.7891 563.26 80.6328L574.369 80.6328C574.354 78.6797 573.893 77.1602 572.986 76.0742 572.08 74.9883 570.83 74.4453 569.236 74.4453ZM368.236 74.4453C366.674 74.4453 365.35 75.0156 364.264 76.1562 363.178 77.2969 362.51 78.7891 362.26 80.6328L373.369 80.6328C373.354 78.6797 372.893 77.1602 371.986 76.0742 371.08 74.9883 369.83 74.4453 368.236 74.4453ZM178.236 74.4453C176.674 74.4453 175.35 75.0156 174.264 76.1562 173.178 77.2969 172.51 78.7891 172.26 80.6328L183.369 80.6328C183.354 78.6797 182.893 77.1602 181.986 76.0742 181.08 74.9883 179.83 74.4453 178.236 74.4453ZM933.299 71 938.736 71 938.736 95 933.299 95ZM860.83 71 866.268 71 866.268 84.7812C866.268 89.0938 867.932 91.25 871.26 91.25 872.869 91.25 874.193 90.6562 875.232 89.4688 876.272 88.2812 876.791 86.7266 876.791 84.8047L876.791 71 882.229 71 882.229 95 876.791 95 876.791 91.2031 876.697 91.2031C875.119 94.1094 872.666 95.5625 869.338 95.5625 863.666 95.5625 860.83 92.1562 860.83 85.3438ZM702.299 71 707.736 71 707.736 95 702.299 95ZM621.299 71 626.736 71 626.736 95 621.299 95ZM532.971 71 538.877 71 544.197 87.7812C544.604 89.0156 544.854 90.0938 544.947 91.0156L545.018 91.0156C545.158 89.8594 545.377 88.8125 545.674 87.875L551.252 71 556.971 71 547.69 95 541.807 95ZM128.299 71 133.736 71 133.736 95 128.299 95ZM393.971 70.5781C394.955 70.5781 395.705 70.7266 396.221 71.0234L396.221 76.1797C395.565 75.6641 394.619 75.4062 393.385 75.4062 391.775 75.4062 390.432 76.1328 389.354 77.5859 388.276 79.0391 387.736 81.0156 387.736 83.5156L387.736 95 382.299 95 382.299 71 387.736 71 387.736 75.9453 387.83 75.9453C388.361 74.2578 389.178 72.9414 390.279 71.9961 391.381 71.0508 392.611 70.5781 393.971 70.5781ZM981.557 70.4375C984.729 70.4375 987.08 71.7344 988.611 74.3281L988.705 74.3281 988.705 71 994.143 71 994.143 93.0781C994.143 101.891 989.713 106.297 980.854 106.297 977.729 106.297 975.002 105.773 972.674 104.727L972.674 99.7578C975.299 101.258 977.791 102.008 980.151 102.008 985.854 102.008 988.705 99.2031 988.705 93.5938L988.705 90.9688 988.611 90.9688C986.815 94.0312 984.111 95.5625 980.502 95.5625 977.58 95.5625 975.225 94.4961 973.436 92.3633 971.647 90.2305 970.752 87.3672 970.752 83.7734 970.752 79.6953 971.713 76.4531 973.635 74.0469 975.557 71.6406 978.197 70.4375 981.557 70.4375ZM958.635 70.4375C961.244 70.4375 963.236 71.2852 964.611 72.9805 965.986 74.6758 966.674 77.125 966.674 80.3281L966.674 95 961.236 95 961.236 81.4766C961.236 76.9922 959.65 74.75 956.479 74.75 954.822 74.75 953.455 75.3711 952.377 76.6133 951.299 77.8555 950.76 79.4219 950.76 81.3125L950.76 95 945.299 95 945.299 71 950.76 71 950.76 74.9844 950.854 74.9844C952.65 71.9531 955.244 70.4375 958.635 70.4375ZM902.635 70.4375C905.244 70.4375 907.236 71.2852 908.611 72.9805 909.986 74.6758 910.674 77.125 910.674 80.3281L910.674 95 905.236 95 905.236 81.4766C905.236 76.9922 903.65 74.75 900.479 74.75 898.822 74.75 897.455 75.3711 896.377 76.6133 895.299 77.8555 894.76 79.4219 894.76 81.3125L894.76 95 889.299 95 889.299 71 894.76 71 894.76 74.9844 894.854 74.9844C896.65 71.9531 899.244 70.4375 902.635 70.4375ZM755.635 70.4375C758.244 70.4375 760.236 71.2852 761.611 72.9805 762.986 74.6758 763.674 77.125 763.674 80.3281L763.674 95 758.236 95 758.236 81.4766C758.236 76.9922 756.65 74.75 753.479 74.75 751.822 74.75 750.455 75.3711 749.377 76.6133 748.299 77.8555 747.76 79.4219 747.76 81.3125L747.76 95 742.299 95 742.299 71 747.76 71 747.76 74.9844 747.854 74.9844C749.65 71.9531 752.244 70.4375 755.635 70.4375ZM725.526 70.4375C729.276 70.4375 732.197 71.5391 734.291 73.7422 736.385 75.9453 737.432 79 737.432 82.9062 737.432 86.7344 736.303 89.8008 734.045 92.1055 731.787 94.4102 728.752 95.5625 724.94 95.5625 721.236 95.5625 718.279 94.4414 716.068 92.1992 713.857 89.957 712.752 86.9844 712.752 83.2812 712.752 79.25 713.904 76.1016 716.209 73.8359 718.514 71.5703 721.619 70.4375 725.526 70.4375ZM670.627 70.4375C676.69 70.4375 679.721 73.4219 679.721 79.3906L679.721 95 674.447 95 674.447 91.25 674.354 91.25C672.697 94.125 670.268 95.5625 667.065 95.5625 664.705 95.5625 662.857 94.9219 661.522 93.6406 660.186 92.3594 659.518 90.6641 659.518 88.5547 659.518 84.0234 662.127 81.3828 667.346 80.6328L674.471 79.625C674.471 76.2031 672.846 74.4922 669.596 74.4922 666.736 74.4922 664.158 75.4766 661.861 77.4453L661.861 72.6875C664.393 71.1875 667.315 70.4375 670.627 70.4375ZM642.557 70.4375C645.729 70.4375 648.08 71.7344 649.611 74.3281L649.705 74.3281 649.705 71 655.143 71 655.143 93.0781C655.143 101.891 650.713 106.297 641.854 106.297 638.729 106.297 636.002 105.773 633.674 104.727L633.674 99.7578C636.299 101.258 638.791 102.008 641.15 102.008 646.854 102.008 649.705 99.2031 649.705 93.5938L649.705 90.9688 649.611 90.9688C647.815 94.0312 645.111 95.5625 641.502 95.5625 638.58 95.5625 636.225 94.4961 634.436 92.3633 632.647 90.2305 631.752 87.3672 631.752 83.7734 631.752 79.6953 632.713 76.4531 634.635 74.0469 636.557 71.6406 639.197 70.4375 642.557 70.4375ZM592.619 70.4375C594.838 70.4375 596.822 70.7734 598.572 71.4453L598.572 76.2031C596.885 75.0469 594.947 74.4688 592.76 74.4688 592.072 74.4688 591.451 74.5391 590.897 74.6797 590.342 74.8203 589.869 75.0156 589.479 75.2656 589.088 75.5156 588.783 75.8164 588.565 76.168 588.346 76.5195 588.236 76.9062 588.236 77.3281 588.236 77.8438 588.346 78.2812 588.565 78.6406 588.783 79 589.108 79.3164 589.537 79.5898 589.967 79.8633 590.483 80.1133 591.084 80.3398 591.686 80.5664 592.377 80.8125 593.158 81.0781 594.19 81.5 595.115 81.9297 595.936 82.3672 596.756 82.8047 597.455 83.3008 598.033 83.8555 598.611 84.4102 599.057 85.0508 599.369 85.7773 599.682 86.5039 599.838 87.3672 599.838 88.3672 599.838 89.5859 599.557 90.6484 598.994 91.5547 598.432 92.4609 597.682 93.2109 596.744 93.8047 595.807 94.3984 594.725 94.8398 593.498 95.1289 592.272 95.418 590.979 95.5625 589.619 95.5625 586.994 95.5625 584.721 95.125 582.799 94.25L582.799 89.2109C584.83 90.7578 587.072 91.5312 589.526 91.5312 592.807 91.5312 594.447 90.5625 594.447 88.625 594.447 88.0781 594.307 87.6133 594.026 87.2305 593.744 86.8477 593.365 86.5078 592.889 86.2109 592.412 85.9141 591.85 85.6484 591.201 85.4141 590.553 85.1797 589.83 84.9141 589.033 84.6172 588.049 84.2266 587.162 83.8125 586.373 83.375 585.584 82.9375 584.928 82.4414 584.404 81.8867 583.881 81.332 583.486 80.7031 583.221 80 582.955 79.2969 582.822 78.4766 582.822 77.5391 582.822 76.3828 583.096 75.3633 583.643 74.4805 584.19 73.5977 584.924 72.8555 585.846 72.2539 586.768 71.6523 587.815 71.1992 588.986 70.8945 590.158 70.5898 591.369 70.4375 592.619 70.4375ZM569.307 70.4375C572.588 70.4375 575.127 71.4922 576.924 73.6016 578.721 75.7109 579.619 78.6406 579.619 82.3906L579.619 84.4766 563.26 84.4766C563.322 86.6953 564.006 88.4062 565.311 89.6094 566.615 90.8125 568.408 91.4141 570.69 91.4141 573.252 91.4141 575.604 90.6484 577.744 89.1172L577.744 93.5C575.557 94.875 572.666 95.5625 569.072 95.5625 565.541 95.5625 562.772 94.4727 560.764 92.293 558.756 90.1133 557.752 87.0469 557.752 83.0938 557.752 79.3594 558.858 76.3164 561.068 73.9648 563.279 71.6133 566.026 70.4375 569.307 70.4375ZM522.635 70.4375C525.244 70.4375 527.236 71.2852 528.612 72.9805 529.986 74.6758 530.674 77.125 530.674 80.3281L530.674 95 525.236 95 525.236 81.4766C525.236 76.9922 523.651 74.75 520.479 74.75 518.822 74.75 517.455 75.3711 516.377 76.6133 515.299 77.8555 514.76 79.4219 514.76 81.3125L514.76 95 509.299 95 509.299 71 514.76 71 514.76 74.9844 514.854 74.9844C516.651 71.9531 519.244 70.4375 522.635 70.4375ZM426.619 70.4375C428.838 70.4375 430.822 70.7734 432.572 71.4453L432.572 76.2031C430.885 75.0469 428.947 74.4688 426.76 74.4688 426.072 74.4688 425.451 74.5391 424.897 74.6797 424.342 74.8203 423.869 75.0156 423.479 75.2656 423.088 75.5156 422.783 75.8164 422.565 76.168 422.346 76.5195 422.236 76.9062 422.236 77.3281 422.236 77.8438 422.346 78.2812 422.565 78.6406 422.783 79 423.108 79.3164 423.537 79.5898 423.967 79.8633 424.483 80.1133 425.084 80.3398 425.686 80.5664 426.377 80.8125 427.158 81.0781 428.19 81.5 429.115 81.9297 429.936 82.3672 430.756 82.8047 431.455 83.3008 432.033 83.8555 432.611 84.4102 433.057 85.0508 433.369 85.7773 433.682 86.5039 433.838 87.3672 433.838 88.3672 433.838 89.5859 433.557 90.6484 432.994 91.5547 432.432 92.4609 431.682 93.2109 430.744 93.8047 429.807 94.3984 428.725 94.8398 427.498 95.1289 426.272 95.418 424.979 95.5625 423.619 95.5625 420.994 95.5625 418.721 95.125 416.799 94.25L416.799 89.2109C418.83 90.7578 421.072 91.5312 423.525 91.5312 426.807 91.5312 428.447 90.5625 428.447 88.625 428.447 88.0781 428.307 87.6133 428.025 87.2305 427.744 86.8477 427.365 86.5078 426.889 86.2109 426.412 85.9141 425.85 85.6484 425.201 85.4141 424.553 85.1797 423.83 84.9141 423.033 84.6172 422.049 84.2266 421.162 83.8125 420.373 83.375 419.584 82.9375 418.928 82.4414 418.404 81.8867 417.881 81.332 417.486 80.7031 417.221 80 416.955 79.2969 416.822 78.4766 416.822 77.5391 416.822 76.3828 417.096 75.3633 417.643 74.4805 418.19 73.5977 418.924 72.8555 419.846 72.2539 420.768 71.6523 421.815 71.1992 422.986 70.8945 424.158 70.5898 425.369 70.4375 426.619 70.4375ZM368.307 70.4375C371.588 70.4375 374.127 71.4922 375.924 73.6016 377.721 75.7109 378.619 78.6406 378.619 82.3906L378.619 84.4766 362.26 84.4766C362.322 86.6953 363.006 88.4062 364.311 89.6094 365.615 90.8125 367.408 91.4141 369.69 91.4141 372.252 91.4141 374.604 90.6484 376.744 89.1172L376.744 93.5C374.557 94.875 371.666 95.5625 368.072 95.5625 364.541 95.5625 361.772 94.4727 359.764 92.293 357.756 90.1133 356.752 87.0469 356.752 83.0938 356.752 79.3594 357.858 76.3164 360.068 73.9648 362.279 71.6133 365.025 70.4375 368.307 70.4375ZM245.619 70.4375C247.838 70.4375 249.822 70.7734 251.572 71.4453L251.572 76.2031C249.885 75.0469 247.947 74.4688 245.76 74.4688 245.072 74.4688 244.451 74.5391 243.897 74.6797 243.342 74.8203 242.869 75.0156 242.479 75.2656 242.088 75.5156 241.783 75.8164 241.565 76.168 241.346 76.5195 241.236 76.9062 241.236 77.3281 241.236 77.8438 241.346 78.2812 241.565 78.6406 241.783 79 242.108 79.3164 242.537 79.5898 242.967 79.8633 243.483 80.1133 244.084 80.3398 244.686 80.5664 245.377 80.8125 246.158 81.0781 247.19 81.5 248.115 81.9297 248.936 82.3672 249.756 82.8047 250.455 83.3008 251.033 83.8555 251.611 84.4102 252.057 85.0508 252.369 85.7773 252.682 86.5039 252.838 87.3672 252.838 88.3672 252.838 89.5859 252.557 90.6484 251.994 91.5547 251.432 92.4609 250.682 93.2109 249.744 93.8047 248.807 94.3984 247.725 94.8398 246.498 95.1289 245.272 95.418 243.979 95.5625 242.619 95.5625 239.994 95.5625 237.721 95.125 235.799 94.25L235.799 89.2109C237.83 90.7578 240.072 91.5312 242.526 91.5312 245.807 91.5312 247.447 90.5625 247.447 88.625 247.447 88.0781 247.307 87.6133 247.026 87.2305 246.744 86.8477 246.365 86.5078 245.889 86.2109 245.412 85.9141 244.85 85.6484 244.201 85.4141 243.553 85.1797 242.83 84.9141 242.033 84.6172 241.049 84.2266 240.162 83.8125 239.373 83.375 238.584 82.9375 237.928 82.4414 237.404 81.8867 236.881 81.332 236.486 80.7031 236.221 80 235.955 79.2969 235.822 78.4766 235.822 77.5391 235.822 76.3828 236.096 75.3633 236.643 74.4805 237.19 73.5977 237.924 72.8555 238.846 72.2539 239.768 71.6523 240.815 71.1992 241.986 70.8945 243.158 70.5898 244.369 70.4375 245.619 70.4375ZM206.635 70.4375C209.244 70.4375 211.236 71.2852 212.611 72.9805 213.986 74.6758 214.674 77.125 214.674 80.3281L214.674 95 209.236 95 209.236 81.4766C209.236 76.9922 207.651 74.75 204.479 74.75 202.822 74.75 201.455 75.3711 200.377 76.6133 199.299 77.8555 198.76 79.4219 198.76 81.3125L198.76 95 193.299 95 193.299 71 198.76 71 198.76 74.9844 198.854 74.9844C200.651 71.9531 203.244 70.4375 206.635 70.4375ZM178.307 70.4375C181.588 70.4375 184.127 71.4922 185.924 73.6016 187.721 75.7109 188.619 78.6406 188.619 82.3906L188.619 84.4766 172.26 84.4766C172.322 86.6953 173.006 88.4062 174.311 89.6094 175.615 90.8125 177.408 91.4141 179.69 91.4141 182.252 91.4141 184.604 90.6484 186.744 89.1172L186.744 93.5C184.557 94.875 181.666 95.5625 178.072 95.5625 174.541 95.5625 171.772 94.4727 169.764 92.293 167.756 90.1133 166.752 87.0469 166.752 83.0938 166.752 79.3594 167.858 76.3164 170.069 73.9648 172.279 71.6133 175.026 70.4375 178.307 70.4375ZM117.713 70.4375C119.901 70.4375 121.83 70.8203 123.502 71.5859L123.502 76.6484C121.83 75.3984 120.049 74.7734 118.158 74.7734 115.861 74.7734 113.979 75.5508 112.51 77.1055 111.041 78.6602 110.307 80.6953 110.307 83.2109 110.307 85.6953 110.998 87.6562 112.381 89.0938 113.764 90.5312 115.619 91.25 117.947 91.25 119.901 91.25 121.744 90.5547 123.479 89.1641L123.479 93.8984C121.557 95.0078 119.283 95.5625 116.658 95.5625 113.096 95.5625 110.221 94.4492 108.033 92.2227 105.846 89.9961 104.752 87.1094 104.752 83.5625 104.752 79.6094 105.928 76.4336 108.279 74.0352 110.631 71.6367 113.776 70.4375 117.713 70.4375ZM91.6349 70.4375C94.2443 70.4375 96.2365 71.2852 97.6115 72.9805 98.9865 74.6758 99.674 77.125 99.674 80.3281L99.674 95 94.2365 95 94.2365 81.4766C94.2365 76.9922 92.6505 74.75 89.4787 74.75 87.8224 74.75 86.4552 75.3711 85.3771 76.6133 84.299 77.8555 83.7599 79.4219 83.7599 81.3125L83.7599 95 78.299 95 78.299 71 83.7599 71 83.7599 74.9844 83.8537 74.9844C85.6505 71.9531 88.2443 70.4375 91.6349 70.4375ZM784.994 69.125 805.924 80.0234 805.924 82.5078 784.994 92.5625 784.994 88.1328 800.322 81.3125 800.322 81.1719 784.994 73.5781ZM452.994 69.125 473.924 80.0234 473.924 82.5078 452.994 92.5625 452.994 88.1328 468.322 81.3125 468.322 81.1719 452.994 73.5781ZM271.994 69.125 292.924 80.0234 292.924 82.5078 271.994 92.5625 271.994 88.1328 287.322 81.3125 287.322 81.1719 271.994 73.5781ZM326.697 66.3828C326.557 67.2734 326.401 67.9766 326.229 68.4922L321.611 81.8984 331.901 81.8984 327.236 68.4922C327.096 68.0547 326.947 67.3516 326.791 66.3828ZM923.213 63.8984 923.213 71 928.955 71 928.955 75.2656 923.213 75.2656 923.213 87.2656C923.213 88.6875 923.471 89.7031 923.986 90.3125 924.502 90.9219 925.361 91.2266 926.565 91.2266 927.486 91.2266 928.283 90.9609 928.955 90.4297L928.955 94.7422C927.893 95.2734 926.494 95.5391 924.76 95.5391 920.104 95.5391 917.776 93.3047 917.776 88.8359L917.776 75.2656 913.768 75.2656 913.768 71 917.776 71 917.776 65.4453ZM692.213 63.8984 692.213 71 697.955 71 697.955 75.2656 692.213 75.2656 692.213 87.2656C692.213 88.6875 692.471 89.7031 692.986 90.3125 693.502 90.9219 694.361 91.2266 695.565 91.2266 696.486 91.2266 697.283 90.9609 697.955 90.4297L697.955 94.7422C696.893 95.2734 695.494 95.5391 693.76 95.5391 689.104 95.5391 686.776 93.3047 686.776 88.8359L686.776 75.2656 682.768 75.2656 682.768 71 686.776 71 686.776 65.4453ZM611.213 63.8984 611.213 71 616.955 71 616.955 75.2656 611.213 75.2656 611.213 87.2656C611.213 88.6875 611.471 89.7031 611.986 90.3125 612.502 90.9219 613.361 91.2266 614.565 91.2266 615.486 91.2266 616.283 90.9609 616.955 90.4297L616.955 94.7422C615.893 95.2734 614.494 95.5391 612.76 95.5391 608.104 95.5391 605.776 93.3047 605.776 88.8359L605.776 75.2656 601.768 75.2656 601.768 71 605.776 71 605.776 65.4453ZM408.213 63.8984 408.213 71 413.955 71 413.955 75.2656 408.213 75.2656 408.213 87.2656C408.213 88.6875 408.471 89.7031 408.986 90.3125 409.502 90.9219 410.361 91.2266 411.565 91.2266 412.486 91.2266 413.283 90.9609 413.955 90.4297L413.955 94.7422C412.893 95.2734 411.494 95.5391 409.76 95.5391 405.104 95.5391 402.776 93.3047 402.776 88.8359L402.776 75.2656 398.768 75.2656 398.768 71 402.776 71 402.776 65.4453ZM227.213 63.8984 227.213 71 232.955 71 232.955 75.2656 227.213 75.2656 227.213 87.2656C227.213 88.6875 227.471 89.7031 227.986 90.3125 228.502 90.9219 229.361 91.2266 230.565 91.2266 231.486 91.2266 232.283 90.9609 232.955 90.4297L232.955 94.7422C231.893 95.2734 230.494 95.5391 228.76 95.5391 224.104 95.5391 221.776 93.3047 221.776 88.8359L221.776 75.2656 217.768 75.2656 217.768 71 221.776 71 221.776 65.4453ZM827.908 61.3906 833.486 61.3906 833.486 75.5234 849.307 75.5234 849.307 61.3906 854.908 61.3906 854.908 95 849.307 95 849.307 80.4219 833.486 80.4219 833.486 95 827.908 95ZM495.885 61.3906 501.627 61.3906 501.627 95 495.885 95ZM323.744 61.3906 330.026 61.3906 342.518 95 336.401 95 333.377 86.4453 320.158 86.4453 317.252 95 311.158 95ZM65.8849 61.3906 71.6271 61.3906 71.6271 95 65.8849 95ZM936.041 59.7734C936.963 59.7734 937.744 60.0703 938.385 60.6641 939.025 61.2578 939.346 62 939.346 62.8906 939.346 63.7344 939.025 64.457 938.385 65.0586 937.744 65.6602 936.963 65.9609 936.041 65.9609 935.15 65.9609 934.389 65.6719 933.756 65.0938 933.123 64.5156 932.807 63.7812 932.807 62.8906 932.807 62 933.123 61.2578 933.756 60.6641 934.389 60.0703 935.15 59.7734 936.041 59.7734ZM705.041 59.7734C705.963 59.7734 706.744 60.0703 707.385 60.6641 708.026 61.2578 708.346 62 708.346 62.8906 708.346 63.7344 708.026 64.457 707.385 65.0586 706.744 65.6602 705.963 65.9609 705.041 65.9609 704.15 65.9609 703.389 65.6719 702.756 65.0938 702.123 64.5156 701.807 63.7812 701.807 62.8906 701.807 62 702.123 61.2578 702.756 60.6641 703.389 60.0703 704.15 59.7734 705.041 59.7734ZM624.041 59.7734C624.963 59.7734 625.744 60.0703 626.385 60.6641 627.026 61.2578 627.346 62 627.346 62.8906 627.346 63.7344 627.026 64.457 626.385 65.0586 625.744 65.6602 624.963 65.9609 624.041 65.9609 623.15 65.9609 622.389 65.6719 621.756 65.0938 621.123 64.5156 620.807 63.7812 620.807 62.8906 620.807 62 621.123 61.2578 621.756 60.6641 622.389 60.0703 623.15 59.7734 624.041 59.7734ZM131.041 59.7734C131.963 59.7734 132.744 60.0703 133.385 60.6641 134.026 61.2578 134.346 62 134.346 62.8906 134.346 63.7344 134.026 64.457 133.385 65.0586 132.744 65.6602 131.963 65.9609 131.041 65.9609 130.151 65.9609 129.389 65.6719 128.756 65.0938 128.123 64.5156 127.807 63.7812 127.807 62.8906 127.807 62 128.123 61.2578 128.756 60.6641 129.389 60.0703 130.151 59.7734 131.041 59.7734ZM346.299 59.4688 351.76 59.4688 351.76 95 346.299 95ZM155.682 59.4688 161.119 59.4688 161.119 95 155.682 95 155.682 90.9219 155.588 90.9219C153.838 94.0156 151.143 95.5625 147.502 95.5625 144.549 95.5625 142.186 94.4883 140.412 92.3398 138.639 90.1914 137.752 87.2656 137.752 83.5625 137.752 79.5938 138.733 76.4141 140.694 74.0234 142.654 71.6328 145.268 70.4375 148.533 70.4375 151.768 70.4375 154.119 71.7344 155.588 74.3281L155.682 74.3281Z" fill="url(#fill51)" fill-rule="evenodd"/><text fill="#000000" fill-opacity="0" font-family="Arial,Arial_MSFontService,sans-serif" font-size="46.8281" x="65.8849" y="100.443">Incidents &gt; Alerts &gt; Investigation &gt; Hunting</text><rect x="135" y="180" width="349" height="453" fill="url(#fill52)"/><path d="M128.5 180.5 134.667 180.5" stroke="#000000" stroke-linecap="round" stroke-linejoin="round" stroke-miterlimit="10" fill="none" fill-rule="evenodd"/><path d="M128.5 223.5 134.667 223.5" stroke="#000000" stroke-linecap="round" stroke-linejoin="round" stroke-miterlimit="10" fill="none" fill-rule="evenodd"/><path d="M128.5 589.5 134.667 589.5" stroke="#000000" stroke-linecap="round" stroke-linejoin="round" stroke-miterlimit="10" fill="none" fill-rule="evenodd"/><path d="M0 0 0.000104987 6.16672" stroke="#000000" stroke-linecap="round" stroke-linejoin="round" stroke-miterlimit="10" fill="none" fill-rule="evenodd" transform="matrix(1 0 0 -1 134.5 638.667)"/><path d="M128.5 546.5 134.667 546.5" stroke="#000000" stroke-linecap="round" stroke-linejoin="round" stroke-miterlimit="10" fill="none" fill-rule="evenodd"/><path d="M128.5 289.5 134.667 289.5" stroke="#000000" stroke-linecap="round" stroke-linejoin="round" stroke-miterlimit="10" fill="none" fill-rule="evenodd"/><path d="M128.5 332.5 134.667 332.5" stroke="#000000" stroke-linecap="round" stroke-linejoin="round" stroke-miterlimit="10" fill="none" fill-rule="evenodd"/><path d="M0 0 0.000104987 6.16672" stroke="#000000" stroke-linecap="round" stroke-linejoin="round" stroke-miterlimit="10" fill="none" fill-rule="evenodd" transform="matrix(1 0 0 -1 228.5 638.667)"/><path d="M128.5 375.5 134.667 375.5" stroke="#000000" stroke-linecap="round" stroke-linejoin="round" stroke-miterlimit="10" fill="none" fill-rule="evenodd"/><path d="M128.5 460.5 134.667 460.5" stroke="#000000" stroke-linecap="round" stroke-linejoin="round" stroke-miterlimit="10" fill="none" fill-rule="evenodd"/><path d="M128.5 503.5 134.667 503.5" stroke="#000000" stroke-linecap="round" stroke-linejoin="round" stroke-miterlimit="10" fill="none" fill-rule="evenodd"/><path d="M128.5 632.5 134.667 632.5" stroke="#000000" stroke-linecap="round" stroke-linejoin="round" stroke-miterlimit="10" fill="none" fill-rule="evenodd"/><path d="M0 0 0.000104987 6.16672" stroke="#000000" stroke-linecap="round" stroke-linejoin="round" stroke-miterlimit="10" fill="none" fill-rule="evenodd" transform="matrix(1 0 0 -1 168.5 638.667)"/><path d="M0 0 0.000104987 6.16672" stroke="#000000" stroke-linecap="round" stroke-linejoin="round" stroke-miterlimit="10" fill="none" fill-rule="evenodd" transform="matrix(1 0 0 -1 287.5 638.667)"/><path d="M128.5 418.5 134.667 418.5" stroke="#000000" stroke-linecap="round" stroke-linejoin="round" stroke-miterlimit="10" fill="none" fill-rule="evenodd"/><path d="M0 0 0.000104987 6.16672" stroke="#000000" stroke-linecap="round" stroke-linejoin="round" stroke-miterlimit="10" fill="none" fill-rule="evenodd" transform="matrix(1 0 0 -1 347.5 638.667)"/><path d="M0 0 0.000104987 6.16672" stroke="#000000" stroke-linecap="round" stroke-linejoin="round" stroke-miterlimit="10" fill="none" fill-rule="evenodd" transform="matrix(1 0 0 -1 406.5 638.667)"/><path d="M0 0 0.000104987 6.16672" stroke="#000000" stroke-linecap="round" stroke-linejoin="round" stroke-miterlimit="10" fill="none" fill-rule="evenodd" transform="matrix(1 0 0 -1 466.5 638.667)"/><g clip-path="url(#clip53)"><rect x="131.5" y="181.5" width="351" height="452" stroke="#000000" stroke-linejoin="round" stroke-miterlimit="10" fill="none"/></g><g clip-path="url(#clip54)"><path d="M0 0 0.000104987 452" stroke="#000000" stroke-linejoin="round" stroke-miterlimit="10" fill="none" fill-rule="evenodd" transform="matrix(1 0 0 -1 131.5 633.5)"/></g><g clip-path="url(#clip55)"><path d="M131.5 633.5 482.5 633.5" stroke="#000000" stroke-linejoin="round" stroke-miterlimit="10" fill="none" fill-rule="evenodd"/></g><g clip-path="url(#clip56)"><path d="M421 225.5C421 219.149 426.373 214 433 214 439.627 214 445 219.149 445 225.5 445 231.851 439.627 237 433 237 426.373 237 421 231.851 421 225.5Z" fill="#1F4E79" fill-rule="evenodd"/></g><g clip-path="url(#clip57)"><path d="M367 311.5C367 300.73 375.73 292 386.5 292 397.27 292 406 300.73 406 311.5 406 322.27 397.27 331 386.5 331 375.73 331 367 322.27 367 311.5Z" fill="#0070C0" fill-rule="evenodd"/></g><g clip-path="url(#clip58)"><path d="M171 547.5C171 530.655 184.655 517 201.5 517 218.345 517 232 530.655 232 547.5 232 564.345 218.345 578 201.5 578 184.655 578 171 564.345 171 547.5Z" fill="#969696" fill-rule="evenodd"/></g><g clip-path="url(#clip59)"><path d="M297 418.5C297 394.476 316.476 375 340.5 375 364.524 375 384 394.476 384 418.5 384 442.524 364.524 462 340.5 462 316.476 462 297 442.524 297 418.5Z" fill="#00B0F0" fill-rule="evenodd"/></g><text font-family="Arial,Arial_MSFontService,sans-serif" font-weight="400" font-size="19" transform="translate(235.511 670)">​<tspan font-family="Segoe UI,Segoe UI_MSFontService,sans-serif" font-weight="700" x="0" y="0">Threat Detection</tspan><tspan x="89.8814" y="-441">​</tspan><tspan font-weight="700" x="89.8814" y="-441">Incidents</tspan><tspan x="-151.251" y="-510">​</tspan><tspan font-family="Segoe UI,Segoe UI_MSFontService,sans-serif" font-weight="700" x="-151.251" y="-510">Confidence</tspan></text><rect x="62.5001" y="474.5" width="55" height="159" stroke="#7F7F7F" stroke-width="1.33333" stroke-miterlimit="8" fill="#E7E8E8"/><rect x="62.5001" y="326.5" width="55" height="140" stroke="#7F7F7F" stroke-width="1.33333" stroke-miterlimit="8" fill="#D5EBEE"/><rect x="62.5001" y="180.5" width="55" height="140" stroke="#7F7F7F" stroke-width="1.33333" stroke-miterlimit="8" fill="#7BC2C8"/><text font-family="Arial,Arial_MSFontService,sans-serif" font-weight="700" font-size="16" transform="translate(69.3038 213)">HIGH<tspan x="1.24998" y="293">LOW</tspan><tspan x="2.25018" y="151">MED</tspan><tspan font-family="Segoe UI,Segoe UI_MSFontService,sans-serif" font-weight="400" x="57.1226" y="455">UNKNOWN</tspan><tspan font-family="Segoe UI,Segoe UI_MSFontService,sans-serif" font-weight="400" x="346.884" y="455">KNOWN</tspan><tspan font-weight="400" font-size="19" x="225.878" y="102">​</tspan><tspan font-size="19" x="225.878" y="102">Alerts</tspan><tspan font-weight="400" font-size="19" x="185.064" y="339">​</tspan><tspan font-size="19" x="185.064" y="339">Hunting</tspan><tspan font-weight="400" font-size="19" x="98.7168" y="210">​</tspan><tspan font-size="19" x="98.7168" y="210">Investigation</tspan></text></g></svg>